<?xml version="1.0" encoding="UTF-8"?>
<svg width="252px" height="190px" viewBox="0 0 252 190" version="1.1" xmlns="http://www.w3.org/2000/svg" xmlns:xlink="http://www.w3.org/1999/xlink">
    <!-- Generator: Sketch 43.1 (39012) - http://www.bohemiancoding.com/sketch -->
    <title>1@2x</title>
    <desc>Created with Sketch.</desc>
    <defs>
        <linearGradient x1="17.2870695%" y1="17.2836181%" x2="100%" y2="40.9551949%" id="linearGradient-1">
            <stop stop-color="#FF0000" stop-opacity="0" offset="0%"></stop>
            <stop stop-color="#FF8A00" stop-opacity="0.5" offset="100%"></stop>
        </linearGradient>
        <path d="M88.79045,66.2696433 L88.8293,66.2841667 L90.2554333,69.9521667 L93.5559333,70.3605 L93.7658167,70.3838333 L93.9758167,70.4071667 L94.1859333,70.427 L94.39605,70.4468333 L94.6062833,70.4631667 L94.8165167,70.4783333 L95.0269833,70.4923333 L95.2372167,70.504 L95.44745,70.5145 L95.6515,70.5224221 L95.6515,126.337983 C95.6515,129.3677 96.8550333,132.273167 98.9972667,134.415517 C101.1395,136.55775 104.045667,137.761283 107.074333,137.761283 L147.259,137.761283 C150.287667,137.761283 153.193833,136.55775 155.335833,134.415517 C157.477833,132.273167 158.681833,129.3677 158.681833,126.337983 L158.681833,45.143 C158.681833,42.1143333 157.477833,39.2081667 155.335833,37.0661667 C153.193833,34.9241667 150.287667,33.7201667 147.259,33.7201667 L115.598446,33.7201667 L115.525667,33.6023333 L115.427667,33.4448333 L115.327333,33.2873333 L115.227,33.131 L115.124333,32.9758333 L115.095167,32.9315 L116.097333,29.1258333 L114.341394,27.4853833 L148.78605,27.4853833 C153.229883,27.4853833 157.492883,29.25055 160.634717,32.39355 C163.777717,35.5353833 165.542883,39.7972167 165.542883,44.24105 L165.542883,147.091467 C165.542883,151.535533 163.777717,155.7976 160.634717,158.940133 C157.492883,162.08255 153.229883,163.84795 148.78605,163.84795 L105.54705,163.84795 C101.102867,163.84795 96.8408,162.08255 93.6983833,158.940133 C90.55585,155.7976 88.79045,151.535533 88.79045,147.091467 L88.79045,66.2696433 Z M127.166667,142.808283 C123.281667,142.808283 120.128167,145.962017 120.128167,149.846667 C120.128167,153.731317 123.281667,156.885167 127.166667,156.885167 C131.051667,156.885167 134.205167,153.731317 134.205167,149.846667 C134.205167,145.962017 131.051667,142.808283 127.166667,142.808283 Z M110.222,30.8221667 L109.3645,34.0736667 C111.382833,36.3696667 112.746667,39.165 113.314833,42.1691667 L116.405333,43.4956667 C116.7355,47.0516667 116.1055,50.6321667 114.578333,53.8626667 L111.221833,54.0528333 C109.660833,56.6813333 107.424333,58.8431667 104.743333,60.3108333 L104.4365,63.6603333 C101.155833,65.0731667 97.5556167,65.5795 94.0122167,65.1268333 L92.7938667,61.992 C89.8116333,61.3211667 87.0646,59.8605 84.83965,57.7651667 L81.5602667,58.5083333 C79.2020833,55.825 77.6078333,52.5571667 76.944,49.0478333 L79.5482333,46.9198333 C79.2653167,43.876 79.8051333,40.8123333 81.1109833,38.0485 L79.3905,35.1598333 C81.2138833,32.088 83.8287333,29.5621667 86.9618167,27.846 L89.7897,29.6648333 C92.59705,28.4561667 95.67775,28.0221667 98.7098,28.4106667 L100.925883,25.8813333 C104.410833,26.6665 107.6215,28.3721667 110.222,30.8221667 Z M98.7648667,41.1623333 C96.4583667,39.9361667 93.5904667,40.8135 92.3645333,43.12 C91.1386,45.4265 92.0159333,48.2941667 94.3224333,49.5203333 C96.6289333,50.7465 99.4968333,49.8691667 100.722767,47.5626667 C101.9487,45.2561667 101.071483,42.3873333 98.7648667,41.1623333 Z M51.9946,29.7733333 L52.98545,35.6953333 C56.6057333,36.5271667 60.0615167,37.9586667 63.2095333,39.9303333 L68.0972833,36.4431667 C71.63415,38.9608333 74.725,42.0513333 77.2419667,45.5886667 L73.7556167,50.4758333 C75.7274,53.6235 77.1587833,57.0803333 77.9905,60.7005 L83.9120333,61.691 C84.63315,65.9715 84.63315,70.343 83.9120333,74.6235 L77.9905,75.614 C77.1587833,79.2353333 75.7274,82.691 73.7556167,85.8386667 L77.2419667,90.7258333 C74.725,94.2631667 71.63415,97.3536667 68.0972833,99.8713333 L63.2095333,96.3841667 C60.0615167,98.357 56.6057333,99.7873333 52.98545,100.619167 L51.9946,106.541167 C47.7138667,107.262167 43.3427167,107.262167 39.0619833,106.541167 L38.0711333,100.619167 C34.4507333,99.7873333 30.9950667,98.357 27.84705,96.3841667 L22.9593,99.8713333 C19.4224333,97.3536667 16.3315833,94.2631667 13.8145,90.7258333 L17.3009667,85.8386667 C15.3290667,82.691 13.8976833,79.2353333 13.0660833,75.614 L7.14455,74.6235 C6.42343333,70.343 6.42343333,65.9715 7.14455,61.691 L13.0660833,60.7005 C13.8976833,57.0803333 15.3290667,53.6235 17.3009667,50.4758333 L13.8145,45.5886667 C16.3315833,42.0513333 19.4224333,38.9608333 22.9593,36.4431667 L27.84705,39.9303333 C30.9950667,37.9586667 34.4507333,36.5271667 38.0711333,35.6953333 L39.0619833,29.7733333 C43.3427167,29.0523333 47.7138667,29.0523333 51.9946,29.7733333 Z M45.5282333,52.9666667 C37.1443333,52.9666667 30.33765,59.773 30.33765,68.1578333 C30.33765,76.5415 37.1443333,83.3478333 45.5282333,83.3478333 C53.91225,83.3478333 60.7189333,76.5415 60.7189333,68.1578333 C60.7189333,59.773 53.91225,52.9666667 45.5282333,52.9666667 Z M35.6844833,104.011833 L35.8710333,108.204833 C38.8346,109.683 41.43055,111.804 43.4690667,114.413833 L47.6152833,113.762833 C49.7508667,116.989833 51.1383833,120.6541 51.67645,124.486833 L48.1385333,126.7448 C48.34025,130.050433 47.8007833,133.359333 46.5596833,136.429767 L49.1974,139.694567 C47.4699167,143.157817 44.9905167,146.1915 41.9403833,148.573833 L38.2159167,146.638917 C35.45395,148.466383 32.31865,149.6537 29.03915,150.114067 L27.5305333,154.030683 C23.6674667,154.26635 19.80055,153.636 16.21235,152.1856 L16.0258,147.992717 C13.0622333,146.51455 10.4664,144.392967 8.42788333,141.7829 L4.28166667,142.434833 C2.14608333,139.207133 0.75845,135.5431 0.220383333,131.710483 L3.75841667,129.4524 C3.5567,126.146767 4.09616667,122.837867 5.33715,119.767433 L2.69955,116.502167 C4.42703333,113.0395 6.90631667,110.006167 9.95656667,107.623833 L13.6810333,109.558167 C16.4428833,107.731167 19.5781833,106.5435 22.8578,106.082667 L24.3663,102.166167 C28.2293667,101.9305 32.0962833,102.561667 35.6844833,104.011833 Z M26.9402,122.014667 C23.5824167,121.467267 20.4118833,123.749033 19.8644833,127.106817 C19.3172,130.4646 21.59885,133.635133 24.9566333,134.182533 C28.3145333,134.729933 31.48495,132.448167 32.03235,129.090383 C32.57975,125.7326 30.2981,122.562067 26.9402,122.014667 Z M179.489333,23.8548333 L179.489333,11.7427333 L191.156,11.7427333 L191.156,23.8548333 L179.489333,23.8548333 Z M138.675833,78.5831667 L138.675833,72.3961 L144.6354,72.3961 L144.6354,78.5831667 L138.675833,78.5831667 Z M135.823333,128.831733 L135.823333,116.719633 L147.49,116.719633 L147.49,128.831733 L135.823333,128.831733 Z M135.823333,114.905 L135.823333,102.7929 L147.49,102.7929 L147.49,114.905 L135.823333,114.905 Z M122.169833,128.831733 L122.169833,116.719633 L133.8365,116.719633 L133.8365,128.831733 L122.169833,128.831733 Z M129.5455,114.905 L129.5455,110.44985 L133.83685,110.44985 L133.83685,114.905 L129.5455,114.905 Z M181.188,165.94095 L181.188,155.591917 L191.156467,155.591917 L191.156467,165.94095 L181.188,165.94095 Z M153.685,189.4599 L153.685,183.272833 L159.644567,183.272833 L159.644567,189.4599 L153.685,189.4599 Z M64.8578,153.757333 L64.8578,143.4083 L74.8262667,143.4083 L74.8262667,153.757333 L64.8578,153.757333 Z M76.944,173.3543 L76.944,167.967683 L82.1326333,167.967683 L82.1326333,173.3543 L76.944,173.3543 Z M36.1530167,184.785883 L36.1530167,181.759783 L39.0678167,181.759783 L39.0678167,184.785883 L36.1530167,184.785883 Z M126.546,3.5315 L126.546,0.5054 L129.4608,0.5054 L129.4608,3.5315 L126.546,3.5315 Z M179.489333,128.831733 L179.489333,124.376583 L183.780683,124.376583 L183.780683,128.831733 L179.489333,128.831733 Z M205.5025,157.104967 L205.5025,154.078867 L208.4173,154.078867 L208.4173,157.104967 L205.5025,157.104967 Z M202.522833,111.802833 L202.522833,105.615767 L208.4824,105.615767 L208.4824,111.802833 L202.522833,111.802833 Z M234.530333,84.4421667 L234.530333,66.5369833 L251.77705,66.5369833 L251.77705,84.4421667 L234.530333,84.4421667 Z M187.846167,75.4891667 L187.846167,49.0200667 L213.341917,49.0200667 L213.341917,75.4891667 L187.846167,75.4891667 Z" id="path-2"></path>
    </defs>
    <g id="UI" stroke="none" stroke-width="1" fill="none" fill-rule="evenodd">
        <g id="D.00.00-Homepage" transform="translate(-1132.000000, -2468.000000)">
            <g id="Section-3" transform="translate(155.000000, 2296.000000)">
                <g id="1" transform="translate(919.000000, 128.000000)">
                    <g transform="translate(45.000000, 0.000000)" id="Page-1">
                        <g transform="translate(12.833333, 44.333333)">
                            <g id="Combined-Shape">
                                <use fill="#FFCB05" xlink:href="#path-2"></use>
                                <use fill="url(#linearGradient-1)" xlink:href="#path-2"></use>
                            </g>
                        </g>
                    </g>
                </g>
            </g>
        </g>
    </g>
</svg>