<?xml version="1.0" encoding="UTF-8"?>
<svg width="244px" height="247px" viewBox="0 0 244 247" version="1.1" xmlns="http://www.w3.org/2000/svg" xmlns:xlink="http://www.w3.org/1999/xlink">
    <!-- Generator: Sketch 43.1 (39012) - http://www.bohemiancoding.com/sketch -->
    <title>2@2x</title>
    <desc>Created with Sketch.</desc>
    <defs>
        <linearGradient x1="17.2870695%" y1="17.2836181%" x2="100%" y2="40.9551949%" id="linearGradient-1">
            <stop stop-color="#FF0000" stop-opacity="0" offset="0%"></stop>
            <stop stop-color="#FF8A00" stop-opacity="0.5" offset="100%"></stop>
        </linearGradient>
        <path d="M57.2432,84.4292934 L57.2432,118.8215 L42.7165667,118.8215 L42.7165667,27.9232333 L87.53115,27.9232333 L87.53115,40.7621667 L57.2432,40.7621667 L57.2432,62.3163733 C53.7947136,64.7797965 51.5449667,68.8155491 51.5449667,73.3728333 C51.5449667,77.9301176 53.7947136,81.9658701 57.2432,84.4292934 Z M57.2432,120.5715 L57.2432,127.947167 L35.0001167,127.947167 L35.0001167,18.7983833 L95.2476,18.7983833 L95.2476,40.7621667 L89.28115,40.7621667 L89.28115,26.173 L40.9665667,26.173 L40.9665667,120.5715 L57.2432,120.5715 Z M101.624075,160.41095 L108.484892,160.41095 L108.484892,170.671375 C108.484892,173.701092 109.688425,176.606558 111.830775,178.748908 C113.973008,180.891142 116.878592,182.094675 119.908192,182.094675 L160.091925,182.094675 C163.121758,182.094675 166.026758,180.891142 168.169925,178.748908 C170.311925,176.606558 171.515925,173.701092 171.515925,170.671375 L171.515925,89.4772083 C171.515925,86.447375 170.311925,83.5412083 168.169925,81.3992083 C166.026758,79.2572083 163.121758,78.0532083 160.091925,78.0532083 L127.990683,78.0532083 L127.990683,71.8185417 L161.620258,71.8185417 C166.064092,71.8185417 170.325925,73.5837083 173.468925,76.7267083 C176.610758,79.8685417 178.375925,84.1315417 178.375925,88.575375 L178.375925,191.424975 C178.375925,195.869158 176.610758,200.131225 173.468925,203.273642 C170.325925,206.416058 166.064092,208.181458 161.620258,208.181458 L118.380558,208.181458 C113.936375,208.181458 109.674308,206.416058 106.531892,203.273642 C103.389475,200.131225 101.624075,195.869158 101.624075,191.424975 L101.624075,160.41095 Z M139.999592,187.141675 C136.115758,187.141675 132.961675,190.295525 132.961675,194.180058 C132.961675,198.064708 136.115758,201.218558 139.999592,201.218558 C143.884592,201.218558 147.038092,198.064708 147.038092,194.180058 C147.038092,190.295525 143.884592,187.141675 139.999592,187.141675 Z M250.084333,152.414733 L250.084333,140.302633 L261.751,140.302633 L261.751,152.414733 L250.084333,152.414733 Z M149.182833,173.165067 L149.182833,161.052967 L160.8495,161.052967 L160.8495,173.165067 L149.182833,173.165067 Z M149.182833,159.238333 L149.182833,147.126233 L160.8495,147.126233 L160.8495,159.238333 L149.182833,159.238333 Z M135.529333,173.165067 L135.529333,161.052967 L147.196,161.052967 L147.196,173.165067 L135.529333,173.165067 Z M142.905,159.238333 L142.905,154.783183 L147.19635,154.783183 L147.19635,159.238333 L142.905,159.238333 Z M18.6666667,178.77125 L18.6666667,168.422217 L28.6351333,168.422217 L28.6351333,178.77125 L18.6666667,178.77125 Z M239.337,68.7586667 L239.337,62.5716 L245.296567,62.5716 L245.296567,68.7586667 L239.337,68.7586667 Z M70.0246167,183.945767 L70.0246167,173.596733 L79.9930833,173.596733 L79.9930833,183.945767 L70.0246167,183.945767 Z M240.108167,246.4861 L240.108167,241.099483 L245.2968,241.099483 L245.2968,246.4861 L240.108167,246.4861 Z M63.9682167,264.873 L63.9682167,258.685933 L69.9277833,258.685933 L69.9277833,264.873 L63.9682167,264.873 Z M139.9055,50.5236667 L139.9055,47.4975667 L142.8203,47.4975667 L142.8203,50.5236667 L139.9055,50.5236667 Z M200.2245,54.9791667 L200.2245,50.5240167 L204.51585,50.5240167 L204.51585,54.9791667 L200.2245,54.9791667 Z M172.016833,31.5886667 L172.016833,28.5625667 L174.931633,28.5625667 L174.931633,31.5886667 L172.016833,31.5886667 Z M213.627167,169.768317 L213.627167,163.58125 L219.586733,163.58125 L219.586733,169.768317 L213.627167,169.768317 Z M35.3357667,226.025683 L35.3357667,208.1205 L52.5824833,208.1205 L52.5824833,226.025683 L35.3357667,226.025683 Z M62.4932,155.16095 L62.4932,46.0121667 L122.740683,46.0121667 L122.740683,155.16095 L62.4932,155.16095 Z M68.45965,147.785167 L116.774233,147.785167 L116.774233,53.3869 L68.45965,53.3869 L68.45965,147.785167 Z M70.20965,146.035167 L70.20965,55.1369 L115.024233,55.1369 L115.024233,146.035167 L70.20965,146.035167 Z M92.617,87.0076667 C85.1225667,87.0076667 79.03805,93.0918333 79.03805,100.5865 C79.03805,108.081167 85.1225667,114.165333 92.617,114.165333 C100.111317,114.165333 106.195833,108.081167 106.195833,100.5865 C106.195833,93.0918333 100.111317,87.0076667 92.617,87.0076667 Z M184.333333,206.5 L184.443,206.592867 L184.555,206.684217 L184.668167,206.773933 L184.784833,206.862017 L184.902667,206.9487 L185.022833,207.0341 L185.145333,207.1181 L185.270167,207.2007 L185.396167,207.282017 L185.5245,207.362283 L185.655167,207.4415 L185.788167,207.519433 L185.9235,207.5962 L186.06,207.672033 L186.198833,207.746817 L186.34,207.820667 L186.4835,207.893467 L186.628167,207.96545 L186.775167,208.036383 L186.9245,208.1065 L187.075,208.175683 L187.227833,208.243933 L187.383,208.311367 L187.5405,208.377983 L187.699167,208.443783 L187.860167,208.50865 L188.0235,208.572817 L188.188,208.636167 L188.356,208.6987 L188.524,208.760417 L188.6955,208.821317 L188.868167,208.881517 L189.042,208.9409 L189.219333,208.999467 L189.397833,209.057333 L189.5775,209.114383 L189.7595,209.170733 L189.943833,209.22615 L190.129333,209.280983 L190.317167,209.335 L190.506167,209.3882 L190.6975,209.4407 L190.891167,209.492383 L191.086,209.54325 L191.282,209.593533 L191.480333,209.642883 L191.681,209.691533 L191.882833,209.739367 L192.085833,209.786383 L192.291167,209.8327 L192.497667,209.8782 L192.7065,209.922883 L192.9165,209.966867 L193.127667,210.010033 L193.341167,210.052383 L193.555833,210.093917 L193.772833,210.134633 L193.991,210.174533 L194.210333,210.213733 L194.432,210.252 L194.653667,210.28945 L194.878833,210.3262 L195.104,210.362017 L195.330333,210.397017 L195.559,210.4312 L195.788833,210.464567 L196.021,210.497 L196.253167,210.528617 L196.487667,210.559417 L196.723333,210.5894 L196.960167,210.61845 L197.198167,210.646567 L197.437333,210.673867 L197.677667,210.70035 L197.920333,210.7259 L198.163,210.750517 L198.408,210.774317 L198.653,210.797067 L198.900333,210.819 L199.147667,210.840117 L199.397333,210.860183 L199.647,210.879317 L199.899,210.897633 L200.151,210.9149 L200.405333,210.93135 L200.659667,210.94675 L200.915167,210.961217 L201.171833,210.97475 L201.429667,210.987233 L201.688667,210.9989 L201.948833,211.009517 L202.209,211.019083 L202.470333,211.027717 L202.732833,211.035417 L202.9965,211.042067 L203.261333,211.047667 L203.526167,211.052333 L203.792167,211.05595 L204.059333,211.058517 L204.327667,211.060033 L204.596,211.0605 L204.864333,211.060033 L205.1315,211.058517 L205.398667,211.05595 L205.664667,211.052333 L205.9295,211.047667 L206.194333,211.042067 L206.458,211.035417 L206.7205,211.027717 L206.981833,211.019083 L207.243167,211.009517 L207.502167,210.9989 L207.761167,210.987233 L208.019,210.97475 L208.275667,210.961217 L208.531167,210.94675 L208.786667,210.93135 L209.039833,210.9149 L209.291833,210.897633 L209.543833,210.879317 L209.794667,210.860183 L210.043167,210.840117 L210.291667,210.819 L210.537833,210.797067 L210.784,210.774317 L211.027833,210.750517 L211.271667,210.7259 L211.513167,210.70035 L211.7535,210.673867 L211.993833,210.646567 L212.231833,210.61845 L212.468667,210.5894 L212.703167,210.559417 L212.937667,210.528617 L213.171,210.497 L213.402,210.464567 L213.631833,210.4312 L213.8605,210.397017 L214.086833,210.362017 L214.313167,210.3262 L214.537167,210.28945 L214.76,210.252 L214.9805,210.213733 L215.199833,210.174533 L215.418,210.134633 L215.635,210.093917 L215.849667,210.052383 L216.063167,210.010033 L216.274333,209.966867 L216.484333,209.922883 L216.693167,209.8782 L216.899667,209.8327 L217.105,209.786383 L217.309167,209.739367 L217.511,209.691533 L217.7105,209.642883 L217.908833,209.593533 L218.106,209.54325 L218.299667,209.492383 L218.493333,209.4407 L218.684667,209.3882 L218.873667,209.335 L219.0615,209.280983 L219.247,209.22615 L219.431333,209.170733 L219.613333,209.114383 L219.794167,209.057333 L219.972667,208.999467 L220.148833,208.9409 L220.323833,208.881517 L220.4965,208.821317 L220.666833,208.760417 L220.836,208.6987 L221.002833,208.636167 L221.167333,208.572817 L221.330667,208.50865 L221.491667,208.443783 L221.650333,208.377983 L221.807833,208.311367 L221.963,208.243933 L222.115833,208.175683 L222.2675,208.1065 L222.415667,208.036383 L222.562667,207.96545 L222.7085,207.893467 L222.850833,207.820667 L222.992,207.746817 L223.130833,207.672033 L223.2685,207.596317 L223.402667,207.519433 L223.535667,207.4415 L223.666333,207.362283 L223.794667,207.282017 L223.921833,207.2007 L224.0455,207.1181 L224.168,207.0341 L224.288167,206.948817 L224.407167,206.862017 L224.522667,206.773933 L224.635833,206.684217 L224.747833,206.592867 L224.8575,206.5 L224.8575,210.4984 C224.8575,213.914167 215.7785,216.687217 204.596,216.687217 C193.412333,216.687217 184.333333,213.914167 184.333333,210.4984 L184.333333,206.5 Z M184.333333,213.5 L184.443,213.592867 L184.555,213.684217 L184.668167,213.773933 L184.784833,213.862017 L184.902667,213.9487 L185.022833,214.0341 L185.145333,214.1181 L185.270167,214.2007 L185.396167,214.282017 L185.5245,214.362283 L185.655167,214.4415 L185.788167,214.519433 L185.9235,214.5962 L186.06,214.672033 L186.198833,214.746817 L186.34,214.820667 L186.4835,214.893467 L186.628167,214.96545 L186.775167,215.036383 L186.9245,215.1065 L187.075,215.175683 L187.227833,215.243933 L187.383,215.311367 L187.5405,215.377983 L187.699167,215.443783 L187.860167,215.50865 L188.0235,215.572817 L188.188,215.636167 L188.356,215.6987 L188.524,215.760417 L188.6955,215.821317 L188.868167,215.881517 L189.042,215.9409 L189.219333,215.999467 L189.397833,216.057333 L189.5775,216.114383 L189.7595,216.170733 L189.943833,216.22615 L190.129333,216.280983 L190.317167,216.335 L190.506167,216.3882 L190.6975,216.4407 L190.891167,216.492383 L191.086,216.54325 L191.282,216.593533 L191.480333,216.642883 L191.681,216.691533 L191.882833,216.739367 L192.085833,216.786383 L192.291167,216.8327 L192.497667,216.8782 L192.7065,216.922883 L192.9165,216.966867 L193.127667,217.010033 L193.341167,217.052383 L193.555833,217.093917 L193.772833,217.134633 L193.991,217.174533 L194.210333,217.213733 L194.432,217.252 L194.653667,217.28945 L194.878833,217.3262 L195.104,217.362017 L195.330333,217.397017 L195.559,217.4312 L195.788833,217.464567 L196.021,217.497 L196.253167,217.528617 L196.487667,217.559417 L196.723333,217.5894 L196.960167,217.61845 L197.198167,217.646567 L197.437333,217.673867 L197.677667,217.70035 L197.920333,217.7259 L198.163,217.750517 L198.408,217.774317 L198.653,217.797067 L198.900333,217.819 L199.147667,217.840117 L199.397333,217.860183 L199.647,217.879317 L199.899,217.897633 L200.151,217.9149 L200.405333,217.93135 L200.659667,217.94675 L200.915167,217.961217 L201.171833,217.97475 L201.429667,217.987233 L201.688667,217.9989 L201.948833,218.009517 L202.209,218.019083 L202.470333,218.027717 L202.732833,218.035417 L202.9965,218.042067 L203.261333,218.047667 L203.526167,218.052333 L203.792167,218.05595 L204.059333,218.058517 L204.327667,218.060033 L204.596,218.0605 L204.864333,218.060033 L205.1315,218.058517 L205.398667,218.05595 L205.664667,218.052333 L205.9295,218.047667 L206.194333,218.042067 L206.458,218.035417 L206.7205,218.027717 L206.981833,218.019083 L207.243167,218.009517 L207.502167,217.9989 L207.761167,217.987233 L208.019,217.97475 L208.275667,217.961217 L208.531167,217.94675 L208.786667,217.93135 L209.039833,217.9149 L209.291833,217.897633 L209.543833,217.879317 L209.794667,217.860183 L210.043167,217.840117 L210.291667,217.819 L210.537833,217.797067 L210.784,217.774317 L211.027833,217.750517 L211.271667,217.7259 L211.513167,217.70035 L211.7535,217.673867 L211.993833,217.646567 L212.231833,217.61845 L212.468667,217.5894 L212.703167,217.559417 L212.937667,217.528617 L213.171,217.497 L213.402,217.464567 L213.631833,217.4312 L213.8605,217.397017 L214.086833,217.362017 L214.313167,217.3262 L214.537167,217.28945 L214.76,217.252 L214.9805,217.213733 L215.199833,217.174533 L215.418,217.134633 L215.635,217.093917 L215.849667,217.052383 L216.063167,217.010033 L216.274333,216.966867 L216.484333,216.922883 L216.693167,216.8782 L216.899667,216.8327 L217.105,216.786383 L217.309167,216.739367 L217.511,216.691533 L217.7105,216.642883 L217.908833,216.593533 L218.106,216.54325 L218.299667,216.492383 L218.493333,216.4407 L218.684667,216.3882 L218.873667,216.335 L219.0615,216.280983 L219.247,216.22615 L219.431333,216.170733 L219.613333,216.114383 L219.794167,216.057333 L219.972667,215.999467 L220.148833,215.9409 L220.323833,215.881517 L220.4965,215.821317 L220.666833,215.760417 L220.836,215.6987 L221.002833,215.636167 L221.167333,215.572817 L221.330667,215.50865 L221.491667,215.443783 L221.650333,215.377983 L221.807833,215.311367 L221.963,215.243933 L222.115833,215.175683 L222.2675,215.1065 L222.415667,215.036383 L222.562667,214.96545 L222.7085,214.893467 L222.850833,214.820667 L222.992,214.746817 L223.130833,214.672033 L223.2685,214.596317 L223.402667,214.519433 L223.535667,214.4415 L223.666333,214.362283 L223.794667,214.282017 L223.921833,214.2007 L224.0455,214.1181 L224.168,214.0341 L224.288167,213.948817 L224.407167,213.862017 L224.522667,213.773933 L224.635833,213.684217 L224.747833,213.592867 L224.8575,213.5 L224.8575,217.4984 C224.8575,220.914167 215.7785,223.687217 204.596,223.687217 C193.412333,223.687217 184.333333,220.914167 184.333333,217.4984 L184.333333,213.5 Z M184.333333,220.5 L184.443,220.592867 L184.555,220.684217 L184.668167,220.773933 L184.784833,220.862017 L184.902667,220.9487 L185.022833,221.0341 L185.145333,221.1181 L185.270167,221.2007 L185.396167,221.282017 L185.5245,221.362283 L185.655167,221.4415 L185.788167,221.519433 L185.9235,221.5962 L186.06,221.672033 L186.198833,221.746817 L186.34,221.820667 L186.4835,221.893467 L186.628167,221.96545 L186.775167,222.036383 L186.9245,222.1065 L187.075,222.175683 L187.227833,222.243933 L187.383,222.311367 L187.5405,222.377983 L187.699167,222.443783 L187.860167,222.50865 L188.0235,222.572817 L188.188,222.636167 L188.356,222.6987 L188.524,222.760417 L188.6955,222.821317 L188.868167,222.881517 L189.042,222.9409 L189.219333,222.999467 L189.397833,223.057333 L189.5775,223.114383 L189.7595,223.170733 L189.943833,223.22615 L190.129333,223.280983 L190.317167,223.335 L190.506167,223.3882 L190.6975,223.4407 L190.891167,223.492383 L191.086,223.54325 L191.282,223.593533 L191.480333,223.642883 L191.681,223.691533 L191.882833,223.739367 L192.085833,223.786383 L192.291167,223.8327 L192.497667,223.8782 L192.7065,223.922883 L192.9165,223.966867 L193.127667,224.010033 L193.341167,224.052383 L193.555833,224.093917 L193.772833,224.134633 L193.991,224.174533 L194.210333,224.213733 L194.432,224.252 L194.653667,224.28945 L194.878833,224.3262 L195.104,224.362017 L195.330333,224.397017 L195.559,224.4312 L195.788833,224.464567 L196.021,224.497 L196.253167,224.528617 L196.487667,224.559417 L196.723333,224.5894 L196.960167,224.61845 L197.198167,224.646567 L197.437333,224.673867 L197.677667,224.70035 L197.920333,224.7259 L198.163,224.750517 L198.408,224.774317 L198.653,224.797067 L198.900333,224.819 L199.147667,224.840117 L199.397333,224.860183 L199.647,224.879317 L199.899,224.897633 L200.151,224.9149 L200.405333,224.93135 L200.659667,224.94675 L200.915167,224.961217 L201.171833,224.97475 L201.429667,224.987233 L201.688667,224.9989 L201.948833,225.009517 L202.209,225.019083 L202.470333,225.027717 L202.732833,225.035417 L202.9965,225.042067 L203.261333,225.047667 L203.526167,225.052333 L203.792167,225.05595 L204.059333,225.058517 L204.327667,225.060033 L204.596,225.0605 L204.864333,225.060033 L205.1315,225.058517 L205.398667,225.05595 L205.664667,225.052333 L205.9295,225.047667 L206.194333,225.042067 L206.458,225.035417 L206.7205,225.027717 L206.981833,225.019083 L207.243167,225.009517 L207.502167,224.9989 L207.761167,224.987233 L208.019,224.97475 L208.275667,224.961217 L208.531167,224.94675 L208.786667,224.93135 L209.039833,224.9149 L209.291833,224.897633 L209.543833,224.879317 L209.794667,224.860183 L210.043167,224.840117 L210.291667,224.819 L210.537833,224.797067 L210.784,224.774317 L211.027833,224.750517 L211.271667,224.7259 L211.513167,224.70035 L211.7535,224.673867 L211.993833,224.646567 L212.231833,224.61845 L212.468667,224.5894 L212.703167,224.559417 L212.937667,224.528617 L213.171,224.497 L213.402,224.464567 L213.631833,224.4312 L213.8605,224.397017 L214.086833,224.362017 L214.313167,224.3262 L214.537167,224.28945 L214.76,224.252 L214.9805,224.213733 L215.199833,224.174533 L215.418,224.134633 L215.635,224.093917 L215.849667,224.052383 L216.063167,224.010033 L216.274333,223.966867 L216.484333,223.922883 L216.693167,223.8782 L216.899667,223.8327 L217.105,223.786383 L217.309167,223.739367 L217.511,223.691533 L217.7105,223.642883 L217.908833,223.593533 L218.106,223.54325 L218.299667,223.492383 L218.493333,223.4407 L218.684667,223.3882 L218.873667,223.335 L219.0615,223.280983 L219.247,223.22615 L219.431333,223.170733 L219.613333,223.114383 L219.794167,223.057333 L219.972667,222.999467 L220.148833,222.9409 L220.323833,222.881517 L220.4965,222.821317 L220.666833,222.760417 L220.836,222.6987 L221.002833,222.636167 L221.167333,222.572817 L221.330667,222.50865 L221.491667,222.443783 L221.650333,222.377983 L221.807833,222.311367 L221.963,222.243933 L222.115833,222.175683 L222.2675,222.1065 L222.415667,222.036383 L222.562667,221.96545 L222.7085,221.893467 L222.850833,221.820667 L222.992,221.746817 L223.130833,221.672033 L223.2685,221.596317 L223.402667,221.519433 L223.535667,221.4415 L223.666333,221.362283 L223.794667,221.282017 L223.921833,221.2007 L224.0455,221.1181 L224.168,221.0341 L224.288167,220.948817 L224.407167,220.862017 L224.522667,220.773933 L224.635833,220.684217 L224.747833,220.592867 L224.8575,220.5 L224.8575,224.4984 C224.8575,227.914167 215.7785,230.687217 204.596,230.687217 C193.412333,230.687217 184.333333,227.914167 184.333333,224.4984 L184.333333,220.5 Z M204.596,197.166667 C215.7785,197.166667 224.8575,199.939833 224.8575,203.355483 C224.8575,206.77125 215.7785,209.5443 204.596,209.5443 C193.412333,209.5443 184.333333,206.77125 184.333333,203.355483 C184.333333,199.939833 193.412333,197.166667 204.596,197.166667 Z M215.349167,96.7143333 C223.312833,96.7143333 229.779667,103.18 229.779667,111.144833 C229.779667,119.109667 223.312833,125.575333 215.349167,125.575333 C207.384333,125.575333 200.918667,119.109667 200.918667,111.144833 C200.918667,103.18 207.384333,96.7143333 215.349167,96.7143333 Z M254.837333,31.5886667 C258.652333,31.5886667 261.751,34.6861667 261.751,38.5023333 C261.751,42.3173333 258.652333,45.416 254.837333,45.416 C251.021167,45.416 247.923667,42.3173333 247.923667,38.5023333 C247.923667,34.6861667 251.021167,31.5886667 254.837333,31.5886667 Z M111.1033,232.146833 C116.044367,232.146833 120.055833,236.158417 120.055833,241.099483 C120.055833,246.04055 116.044367,250.052017 111.1033,250.052017 C106.162233,250.052017 102.15065,246.04055 102.15065,241.099483 C102.15065,236.158417 106.162233,232.146833 111.1033,232.146833 Z" id="path-2"></path>
    </defs>
    <g id="UI" stroke="none" stroke-width="1" fill="none" fill-rule="evenodd">
        <g id="D.00.00-Homepage" transform="translate(-678.000000, -2442.000000)">
            <g id="Section-3" transform="translate(155.000000, 2296.000000)">
                <g id="2" transform="translate(459.500000, 128.000000)">
                    <g transform="translate(45.500000, 0.000000)" id="Combined-Shape">
                        <g>
                            <use fill="#FFCB05" xlink:href="#path-2"></use>
                            <use fill="url(#linearGradient-1)" xlink:href="#path-2"></use>
                        </g>
                    </g>
                </g>
            </g>
        </g>
    </g>
</svg>