<?xml version="1.0" encoding="UTF-8"?>
<svg width="228px" height="237px" viewBox="0 0 228 237" version="1.1" xmlns="http://www.w3.org/2000/svg" xmlns:xlink="http://www.w3.org/1999/xlink">
    <!-- Generator: Sketch 43.1 (39012) - http://www.bohemiancoding.com/sketch -->
    <title>2@2x</title>
    <desc>Created with Sketch.</desc>
    <defs>
        <linearGradient x1="17.2870695%" y1="17.2836181%" x2="100%" y2="40.9551949%" id="linearGradient-1">
            <stop stop-color="#FF0000" stop-opacity="0" offset="0%"></stop>
            <stop stop-color="#FF8A00" stop-opacity="0.5" offset="100%"></stop>
        </linearGradient>
        <path d="M194.6315,255.337834 L211.878216,255.337834 L211.878216,237.432651 L194.6315,237.432651 L194.6315,255.337834 Z M79.4254996,232.053268 L85.3850662,232.053268 L85.3850662,225.866201 L79.4254996,225.866201 L79.4254996,232.053268 Z M236.520666,215.740234 L241.7093,215.740234 L241.7093,210.353618 L236.520666,210.353618 L236.520666,215.740234 Z M28.0891329,210.353501 L32.3804829,210.353501 L32.3804829,205.898351 L28.0891329,205.898351 L28.0891329,210.353501 Z M146.861166,71.7628342 L161.539,71.7628342 C165.982833,71.7628342 170.244666,73.5280009 173.387666,76.6710009 C176.5295,79.8140009 178.295833,84.0758342 178.295833,88.5196676 L178.295833,191.369501 C178.295833,195.813568 176.5295,200.075634 173.387666,203.218051 C170.244666,206.360468 165.982833,208.125984 161.539,208.125984 L118.29965,208.125984 C113.855466,208.125984 109.593516,206.360468 106.450983,203.218051 C103.308566,200.075634 101.543166,195.813568 101.543166,191.369501 L101.543166,120.796668 C103.769166,121.580668 106.06995,122.145334 108.403983,122.482501 L108.403983,170.615901 C108.403983,173.645501 109.607516,176.551084 111.749866,178.693318 C113.8921,180.835668 116.797683,182.039084 119.827283,182.039084 L160.010666,182.039084 C163.0405,182.039084 165.946666,180.835668 168.088666,178.693318 C170.230666,176.551084 171.434666,173.645501 171.434666,170.615901 L171.434666,89.4215009 C171.434666,86.3916676 170.230666,83.4866676 168.088666,81.3435009 C165.946666,79.2015009 163.0405,77.9975009 160.010666,77.9975009 L148.9775,77.9975009 C148.463,75.8613342 147.753666,73.7718342 146.861166,71.7628342 Z M139.9195,187.086084 C143.803333,187.086084 146.958,190.239934 146.958,194.124584 C146.958,198.009118 143.803333,201.162968 139.9195,201.162968 C136.034616,201.162968 132.880766,198.009118 132.880766,194.124584 C132.880766,190.239934 136.034616,187.086084 139.9195,187.086084 Z M56.3720496,176.315301 L66.3405162,176.315301 L66.3405162,165.966268 L56.3720496,165.966268 L56.3720496,176.315301 Z M241.708833,168.047251 L247.6684,168.047251 L247.6684,161.860184 L241.708833,161.860184 L241.708833,168.047251 Z M157.003,138.057501 C157.003,136.129001 156.237666,134.279834 154.873833,132.916001 C153.51,131.552168 151.659666,130.785668 149.731166,130.785668 L130.1069,130.785668 C128.178283,130.785668 126.328766,131.552168 124.96505,132.916001 C123.601333,134.279834 122.835183,136.129001 122.8353,138.057501 L122.8353,157.682118 C122.835183,159.610734 123.601333,161.460251 124.96505,162.823968 C126.328766,164.187684 128.178283,164.953718 130.1069,164.953718 L149.731166,164.953718 C151.659666,164.953718 153.51,164.187684 154.873833,162.823968 C156.237666,161.460251 157.003,159.610734 157.003,157.682118 L157.003,138.057501 Z M140.816666,159.632551 L151.357383,159.632551 L151.357383,148.689451 L140.816666,148.689451 L140.816666,159.632551 Z M128.481033,159.632551 L139.02175,159.632551 L139.02175,148.689451 L128.481033,148.689451 L128.481033,159.632551 Z M140.816666,147.050051 L151.357383,147.050051 L151.357383,136.106951 L140.816666,136.106951 L140.816666,147.050051 Z M135.144566,147.050051 L139.02175,147.050051 L139.02175,143.024818 L135.144566,143.024818 L135.144566,147.050051 Z M235.593166,114.178168 C236.425,112.543668 236.573166,110.645501 236.006166,108.902501 C235.438,107.158334 234.201333,105.711668 232.566833,104.879834 C227.6645,102.384334 220.838333,98.9111676 215.936,96.4156676 C214.3015,95.5838342 212.403333,95.4356676 210.659166,96.0038342 C208.916166,96.5708342 207.468333,97.8075009 206.637666,99.4420009 C204.142166,104.344334 200.667833,111.171668 198.1735,116.074001 C197.341666,117.708501 197.1935,119.605501 197.7605,121.349668 C198.328666,123.093834 199.565333,124.540501 201.199833,125.372334 C206.102166,127.866668 212.928333,131.341001 217.830666,133.835334 C219.465166,134.667168 221.363333,134.815334 223.1075,134.248334 C224.8505,133.681334 226.297166,132.443501 227.129,130.809001 C229.6245,125.906668 233.098833,119.080501 235.593166,114.178168 Z M20.2999996,130.785668 L23.2147996,130.785668 L23.2147996,127.759568 L20.2999996,127.759568 L20.2999996,130.785668 Z M221.503333,130.027334 L226.223666,120.753501 L217.2905,116.207001 L212.571333,125.482001 L221.503333,130.027334 Z M211.05,124.707334 L215.769166,115.433501 L206.836,110.887001 L202.116833,120.160834 L211.05,124.707334 Z M226.930666,119.364001 L231.649833,110.090168 L222.716666,105.544834 L217.9975,114.818668 L226.930666,119.364001 Z M128.639816,61.6070009 L137.926833,52.3191676 L143.029833,57.4221676 L111.434516,89.0178342 L111.4344,89.0178342 L111.4344,89.0178342 L103.390816,80.9748342 L97.6161662,86.7486676 L111.4344,100.567834 L139.1005,72.9015009 C141.089666,76.7818342 142.213166,81.1790009 142.213166,85.8363342 C142.213166,101.518668 129.4811,114.250501 113.799,114.250501 C98.1168996,114.250501 85.3850662,101.518668 85.3850662,85.8363342 C85.3850662,70.1540009 98.1168996,57.4221676 113.799,57.4221676 C119.236483,57.4221676 124.319416,58.9528342 128.639816,61.6070009 Z M216.476166,114.044001 L218.212166,110.632668 L214.926833,108.960834 L213.190833,112.372168 L216.476166,114.044001 Z M57.5795496,78.6485009 C57.0546662,77.5250009 56.1046496,76.6558342 54.9386829,76.2323342 C53.7727162,75.8076676 52.4862329,75.8648342 51.3621496,76.3898342 C47.9907162,77.9648342 43.2956996,80.1570009 39.9242662,81.7320009 C38.8001829,82.2570009 37.9307829,83.2066676 37.5071662,84.3721676 C37.0835496,85.5388342 37.1404829,86.8256676 37.6653662,87.9491676 C39.2398996,91.3208342 41.4325329,96.0155009 43.0070662,99.3871676 C43.5320662,100.510668 44.4819662,101.381001 45.6479329,101.804501 C46.8138996,102.228001 48.1004996,102.170834 49.2244662,101.645834 C52.5960162,100.072001 57.2909162,97.8786676 60.6624662,96.3048342 C61.7864329,95.7798342 62.6559496,94.8290009 63.0795662,93.6635009 C63.5031829,92.4980009 63.4462496,91.2111676 62.9212496,90.0865009 C61.3467162,86.7160009 59.1540829,82.0201676 57.5795496,78.6485009 Z M52.9720329,96.1181676 L49.9934162,89.7400009 L43.8498662,92.6088342 L46.8285996,98.9870009 L52.9720329,96.1181676 Z M60.1616162,92.7605009 L57.1829996,86.3823342 L51.0394496,89.2511676 L54.0180662,95.6293342 L60.1616162,92.7605009 Z M49.5471662,88.7845009 L48.4515496,86.4383342 L46.1918329,87.4941676 L47.2874496,89.8403342 L49.5471662,88.7845009 Z M56.7367496,85.4268342 L53.7581329,79.0486676 L47.6145829,81.9175009 L50.5933162,88.2956676 L56.7367496,85.4268342 Z M238.729166,66.0438342 L244.688733,66.0438342 L244.688733,59.8567676 L238.729166,59.8567676 L238.729166,66.0438342 Z M197.421,59.8570009 L209.087666,59.8570009 L209.087666,47.7449009 L197.421,47.7449009 L197.421,59.8570009 Z M56.3720496,42.4620009 L66.3405162,42.4620009 L66.3405162,32.1129676 L56.3720496,32.1129676 L56.3720496,42.4620009 Z M154.088666,22.5096676 L157.003466,22.5096676 L157.003466,19.4835676 L154.088666,19.4835676 L154.088666,22.5096676 Z" id="path-2"></path>
    </defs>
    <g id="UI" stroke="none" stroke-width="1" fill="none" fill-rule="evenodd">
        <g id="D.00.00-Homepage" transform="translate(-220.000000, -2443.000000)">
            <g id="Section-3" transform="translate(155.000000, 2296.000000)">
                <g id="3" transform="translate(0.000000, 128.000000)">
                    <g transform="translate(45.000000, 0.000000)" id="Page-1">
                        <g>
                            <use fill="#FFCB05" xlink:href="#path-2"></use>
                            <use fill="url(#linearGradient-1)" xlink:href="#path-2"></use>
                        </g>
                    </g>
                </g>
            </g>
        </g>
    </g>
</svg>