<?xml version="1.0" encoding="UTF-8"?>
<svg width="18px" height="16px" viewBox="0 0 18 16" version="1.1" xmlns="http://www.w3.org/2000/svg" xmlns:xlink="http://www.w3.org/1999/xlink">
    <!-- Generator: Sketch 43.1 (39012) - http://www.bohemiancoding.com/sketch -->
    <title>icon_heart@2x</title>
    <desc>Created with Sketch.</desc>
    <defs>
        <path d="M10,17.7916667 L8.79166667,16.6916667 C4.5,12.8 1.66666667,10.2333333 1.66666667,7.08333333 C1.66666667,4.51666667 3.68333333,2.5 6.25,2.5 C7.7,2.5 9.09166667,3.175 10,4.24166667 C10.9083333,3.175 12.3,2.5 13.75,2.5 C16.3166667,2.5 18.3333333,4.51666667 18.3333333,7.08333333 C18.3333333,10.2333333 15.5,12.8 11.2083333,16.7 L10,17.7916667 Z" id="path-1"></path>
    </defs>
    <g id="UI" stroke="none" stroke-width="1" fill="none" fill-rule="evenodd">
        <g id="D.00.00-Homepage" transform="translate(-93.000000, -4156.000000)">
            <g id="Footer" transform="translate(0.000000, 3895.000000)">
                <g id="Copyright" transform="translate(24.000000, 257.000000)">
                    <g id="icon_heart" transform="translate(68.000000, 2.000000)">
                        <polygon id="Shape" points="0 0 20 0 20 20 0 20"></polygon>
                        <mask id="mask-2" fill="white">
                            <use xlink:href="#path-1"></use>
                        </mask>
                        <use id="Shape" fill="#D50000" fill-rule="nonzero" xlink:href="#path-1"></use>
                        <rect id="Rectangle" fill-opacity="0.119999997" fill="#000000" fill-rule="evenodd" mask="url(#mask-2)" x="0" y="0" width="10" height="20"></rect>
                        <circle id="Oval-2" fill="#FFFFFF" fill-rule="evenodd" mask="url(#mask-2)" cx="14.5833333" cy="5.41666667" r="1.25"></circle>
                    </g>
                </g>
            </g>
        </g>
    </g>
</svg>