<?xml version="1.0" encoding="UTF-8"?>
<svg width="56px" height="56px" viewBox="0 0 56 56" version="1.1" xmlns="http://www.w3.org/2000/svg" xmlns:xlink="http://www.w3.org/1999/xlink">
    <!-- Generator: Sketch 43.1 (39012) - http://www.bohemiancoding.com/sketch -->
    <title>icon/ic_social_telegram</title>
    <desc>Created with Sketch.</desc>
    <defs></defs>
    <g id="UI" stroke="none" stroke-width="1" fill="none" fill-rule="evenodd">
        <g id="D.02.06-Project-info---Our-team" transform="translate(-307.000000, -536.000000)">
            <g id="icon_ic_social_gplus" transform="translate(307.000000, 536.000000)">
                <path d="M0,13.9867095 L0,42.0132905 C0,49.7390937 6.26206313,56 13.9867095,56 L42.0132905,56 C49.7390937,56 56,49.7379369 56,42.0132905 L56,13.9867095 C56,6.26090629 49.7379369,0 42.0132905,0 L13.9867095,0 C6.26090629,0 0,6.26206313 0,13.9867095 Z" id="Rectangle" fill="#DC4E41" fill-rule="evenodd" transform="translate(28.000000, 28.000000) rotate(-0.000000) translate(-28.000000, -28.000000) "></path>
                <path d="M9.83978947,28.2986667 C9.61726316,22.4397895 14.7491228,17.0254737 20.6138947,16.9552281 C23.6030175,16.7002807 26.5110877,17.8610526 28.773193,19.7542456 C27.8452632,20.7745263 26.9011228,21.7830175 25.8926316,22.7271579 C23.901193,21.5172632 21.5035088,20.5952281 19.1760702,21.4141053 C15.4221053,22.4830175 13.1487018,26.9153684 14.5378947,30.5877895 C15.6883509,34.4232982 20.3535439,36.5282105 24.0097544,34.9169825 C25.9029474,34.2390877 27.1511579,32.4922807 27.6988772,30.6152982 C25.5291228,30.5720702 23.3588772,30.5990877 21.1891228,30.5391579 C21.1837193,29.2482105 21.1783158,27.9621754 21.1837193,26.6712281 C24.8021053,26.6658246 28.4258947,26.6550175 32.0496842,26.6874386 C32.2722105,29.8504561 31.8055439,33.2355088 29.7492632,35.7741754 C26.9335439,39.3979649 21.7314386,40.4614737 17.4995088,39.0398596 C13.0082105,37.5647018 9.74203509,33.04 9.83978947,28.2986667 L9.83978947,28.2986667 Z M39.1027368,23.4158596 L42.3301053,23.4158596 C42.336,24.4955789 42.3463158,25.5807018 42.3522105,26.6599298 C43.4314386,26.6707368 44.5165614,26.6761404 45.5962807,26.6815439 L45.5962807,29.914807 C44.5170526,29.9202105 43.4319298,29.925614 42.3522105,29.9310175 C42.3414035,31.0161404 42.336,32.0953684 42.3301053,33.1804912 C41.2508772,33.1750877 40.1706667,33.1804912 39.0968421,33.1804912 C39.0865263,32.0953684 39.0865263,31.0161404 39.0752281,29.9364211 C37.996,29.9251228 36.9108772,29.9202105 35.8311579,29.9143158 L35.8311579,26.6810526 C36.9108772,26.6756491 37.9905965,26.6702456 39.0752281,26.6594386 C39.0806316,25.5807018 39.0914386,24.4955789 39.1027368,23.4158596 L39.1027368,23.4158596 Z" id="Combined-Shape" fill="#FFFFFF" fill-rule="nonzero"></path>
            </g>
        </g>
    </g>
</svg>