<?xml version="1.0" encoding="UTF-8"?>
<svg width="40px" height="40px" viewBox="0 0 40 40" version="1.1" xmlns="http://www.w3.org/2000/svg" xmlns:xlink="http://www.w3.org/1999/xlink">
    <!-- Generator: Sketch 43.1 (39012) - http://www.bohemiancoding.com/sketch -->
    <title>icon_instagram@2x</title>
    <desc>Created with Sketch.</desc>
    <defs>
        <radialGradient cx="26.6367729%" cy="100%" fx="26.6367729%" fy="100%" r="100.56509%" id="radialGradient-1">
            <stop stop-color="#FED775" offset="0%"></stop>
            <stop stop-color="#F6AF5A" offset="20%"></stop>
            <stop stop-color="#F6AF5A" offset="20%"></stop>
            <stop stop-color="#EE5A44" offset="40%"></stop>
            <stop stop-color="#EE5A44" offset="40%"></stop>
            <stop stop-color="#C32F88" offset="70%"></stop>
            <stop stop-color="#C32F88" offset="70%"></stop>
            <stop stop-color="#5C6CB3" offset="100%"></stop>
        </radialGradient>
    </defs>
    <g id="UI" stroke="none" stroke-width="1" fill="none" fill-rule="evenodd">
        <g id="D.00.00-Homepage" transform="translate(-283.000000, -4040.000000)">
            <g id="Footer" transform="translate(0.000000, 3895.000000)">
                <g id="Column-3" transform="translate(155.000000, 49.000000)">
                    <g id="Social-Icons" transform="translate(0.000000, 96.000000)">
                        <g id="icon_ic_social_instagram" transform="translate(128.000000, 0.000000)">
                            <path d="M0,9.99050677 L0,30.0094932 C0,35.5279241 4.47290224,40 9.99050677,40 L30.0094932,40 C35.5279241,40 40,35.5270978 40,30.0094932 L40,9.99050677 C40,4.47207592 35.5270978,0 30.0094932,0 L9.99050677,0 C4.47207592,0 0,4.47290224 0,9.99050677 Z" id="Rectangle" fill="url(#radialGradient-1)"></path>
                            <path d="M26.0104304,4.61448479 C26.0638623,4.6145782 26.1173877,4.61504526 26.1709131,4.6160728 C26.2821674,4.61822129 26.3934216,4.62233144 26.5045825,4.62849666 C26.8243335,4.64624504 27.1432438,4.68080766 27.4594451,4.73218454 C27.8029229,4.7879518 28.1432246,4.86361593 28.478015,4.95870985 C28.8037444,5.05118823 29.1242427,5.16216228 29.4375482,5.29069788 C29.8110114,5.44389438 30.1741058,5.62231225 30.5237487,5.82408325 C30.8823593,6.03099194 31.2266778,6.26246811 31.553715,6.51626988 C32.0691651,6.91635561 32.5413653,7.37202179 32.9596665,7.8728062 C33.3740444,8.36873316 33.7352705,8.90884424 34.0351246,9.48136945 C34.3332039,10.050345 34.5702848,10.6510808 34.7409495,11.2703122 C34.869018,11.7347592 34.9596281,12.2093881 35.012126,12.688314 C35.034545,12.8938215 35.0500514,13.1000763 35.058552,13.3065179 C35.0634094,13.4229099 35.0658381,13.5393019 35.0663052,13.6557873 C35.0770476,17.9404318 35.0770476,22.2251698 35.0663052,26.5098143 C35.0659316,26.6069633 35.0641567,26.7041123 35.0607939,26.8011679 C35.0536011,27.0079832 35.0394024,27.2145182 35.0181044,27.4203994 C34.9681287,27.9046498 34.8792,28.3848834 34.7520656,28.8548417 C34.6719176,29.1508659 34.5766369,29.4428734 34.4667838,29.7291827 C34.3481499,30.0383781 34.2124215,30.341128 34.0605328,30.6353774 C33.7558212,31.2260246 33.3858143,31.7827631 32.9596665,32.2927954 C32.5413653,32.7935798 32.0691651,33.249246 31.553715,33.6493317 C31.2518992,33.8836102 30.9353242,34.0989261 30.6063254,34.2933175 C30.2353844,34.51265 29.84875,34.7054534 29.4502523,34.8696726 C29.1674927,34.9862514 28.8786612,35.0884447 28.5854394,35.1756919 C28.2206636,35.2841439 27.8490686,35.3695229 27.473457,35.4311751 C27.1669706,35.4814311 26.8578686,35.5159003 26.5478325,35.5345828 C26.4271436,35.5418689 26.3062678,35.5467264 26.185392,35.5492485 C26.1319601,35.5502761 26.0785281,35.55093 26.0250027,35.5511168 C22.0083587,35.5602712 17.9917146,35.5602712 13.9750705,35.5511168 C13.9215451,35.55093 13.8681132,35.5502761 13.8146812,35.5492485 C13.6938054,35.5467264 13.5729297,35.5418689 13.4522407,35.5345828 C13.1422046,35.5159003 12.8331027,35.4814311 12.5266163,35.4311751 C12.2063048,35.3785839 11.8887957,35.3088048 11.5760507,35.2220245 C11.2272484,35.1253426 10.8843311,35.0075494 10.5497275,34.8696726 C10.1638405,34.7106845 9.78906953,34.5247936 9.42887093,34.314055 C9.08735483,34.1141523 8.75882306,33.891924 8.44626484,33.6493317 C7.93081466,33.249246 7.45861448,32.7935798 7.0403133,32.2928888 C6.62005046,31.7898625 6.25443394,31.2413443 5.95205768,30.6598515 C5.79717975,30.361959 5.65892925,30.0554726 5.53814689,29.7421671 C5.42960156,29.460435 5.33506811,29.1731915 5.25529384,28.8818379 C5.12545046,28.4078629 5.0345601,27.9233323 4.98337005,27.4345981 C4.96179176,27.2288103 4.94721941,27.0223687 4.93974641,26.8156468 C4.93600991,26.7137338 4.93404825,26.6117274 4.9336746,26.5098143 C4.92339923,22.2251698 4.92339923,17.9404318 4.9336746,13.6557873 C4.93404825,13.5538742 4.93600991,13.4518678 4.93974641,13.3499547 C4.94721941,13.1432329 4.96179176,12.9367912 4.98327664,12.7310035 C5.03399963,12.2469399 5.12376904,11.7669865 5.25165075,11.2973085 C5.33581541,10.9880197 5.4366075,10.6832147 5.55327971,10.3845749 C5.6787327,10.0635162 5.82258795,9.74965015 5.98400475,9.44493858 C6.28423253,8.8779247 6.6449916,8.34304473 7.05778144,7.8518818 C7.47757721,7.35240516 7.95117859,6.89823359 8.46774971,6.49964245 C8.7919845,6.24948378 9.13312695,6.02127704 9.48809445,5.81717073 C9.84212783,5.61362489 10.2098928,5.43408606 10.5881201,5.28023568 C10.9018926,5.15254079 11.222858,5.04259428 11.548961,4.95114344 C11.8750641,4.85959919 12.2063048,4.7864572 12.5406281,4.73218454 C12.8520654,4.68155496 13.1661182,4.64727258 13.4811052,4.62933738 C13.5970301,4.62270509 13.7130484,4.6183147 13.8291602,4.6160728 C13.8778281,4.61513868 13.9264026,4.61467161 13.9750705,4.61448479 C17.9868571,4.6048633 21.9986438,4.61121535 26.0104304,4.61448479 Z M14.0049625,7.8899941 C13.8955764,7.8899941 13.786097,7.8929833 13.6768978,7.8989617 C13.472231,7.91035802 13.2682181,7.93240337 13.0658866,7.96528457 C12.8529061,7.99994061 12.6417939,8.04646004 12.4340445,8.10474944 C12.2263885,8.16303884 12.0220953,8.2330048 11.822286,8.31427367 C11.5919308,8.40805982 11.3676474,8.51669856 11.151304,8.63944259 C10.9285152,8.76564287 10.7142269,8.90678916 10.5100272,9.06138685 C10.1768248,9.31369401 9.87089888,9.60196499 9.5990685,9.91947407 C9.32097949,10.2444562 9.07876088,10.5999841 8.8786713,10.9779311 C8.67475181,11.3629774 8.51464279,11.7711901 8.40282803,12.1922936 C8.32380105,12.489719 8.26878109,12.7934965 8.2382352,13.0997026 C8.22562451,13.2256227 8.21712398,13.3520098 8.21273359,13.4785837 C8.21049169,13.5442527 8.20927733,13.6099217 8.20918391,13.6755907 C8.20572765,17.9502401 8.19890854,22.2248895 8.20918391,26.4994455 C8.20965098,26.6116339 8.21301383,26.7238223 8.21983294,26.8358239 C8.23188315,27.0371279 8.25448898,27.2378713 8.28746359,27.43684 C8.32314716,27.6526228 8.37116119,27.8663506 8.43122543,28.0766222 C8.48970165,28.2810087 8.55948079,28.4821258 8.64018919,28.6788526 C8.73901961,28.91967 8.85429064,29.1537617 8.98469449,29.3791661 C9.10715828,29.5905586 9.24298005,29.7942912 9.39113228,29.9885892 C9.64446698,30.3211377 9.93357866,30.6262229 10.2520219,30.8970258 C10.597835,31.1912752 10.9780238,31.4447967 11.3827802,31.6505844 C11.7371872,31.8307771 12.1103702,31.9740719 12.4942955,32.0773861 C12.7854623,32.1556658 13.0827009,32.210966 13.3823682,32.2428197 C13.5236079,32.2578591 13.6653146,32.2676674 13.8072082,32.272338 C13.8697012,32.2744865 13.9322876,32.275514 13.9948739,32.2756075 C18.0014295,32.2792505 22.0080784,32.2847619 26.0145405,32.2756075 C26.0740443,32.2754206 26.1334547,32.2743931 26.192865,32.272338 C26.3225216,32.268041 26.4519913,32.2594471 26.5810874,32.2465562 C26.8931785,32.2153564 27.2027475,32.1588418 27.5056843,32.0773861 C27.7170768,32.0204979 27.9251998,31.9515595 28.1287457,31.8709445 C28.3275275,31.7922912 28.5218255,31.7023349 28.7106121,31.6020099 C29.090801,31.3999587 29.4481972,31.1553113 29.7744871,30.8743265 C30.0868585,30.605392 30.3706457,30.3032959 30.6194031,29.9747642 C30.7811002,29.7613166 30.9279446,29.5366595 31.0586287,29.3030349 C31.1742734,29.0961262 31.277214,28.8820247 31.3665163,28.6625054 C31.4545109,28.446162 31.5292409,28.2244942 31.5902393,27.9991832 C31.6443251,27.7992805 31.6875751,27.5964819 31.7198024,27.392002 C31.7508153,27.1954621 31.7715529,26.9974276 31.7822954,26.7987392 C31.7878067,26.695892 31.7906091,26.5929514 31.7907959,26.4900109 C31.7937851,22.2153614 31.8015383,17.9408054 31.7907959,13.6662494 C31.7906091,13.6036631 31.7893947,13.5411701 31.7872462,13.4786771 C31.782669,13.3460314 31.7735146,13.2134791 31.7598764,13.0814872 C31.7280227,12.7725721 31.6714147,12.4662725 31.5902393,12.1664183 C31.48104,11.7629698 31.3275633,11.3715714 31.133639,11.0012842 C30.9338296,10.6197876 30.6912374,10.2608033 30.4122142,9.93273865 C30.1451479,9.61877924 29.8447333,9.33331064 29.5176027,9.08249807 C29.3167658,8.92846086 29.1058404,8.78759481 28.8866947,8.66111429 C28.6662412,8.53388646 28.437474,8.4213244 28.2021679,8.32436222 C27.8034833,8.15995622 27.3863965,8.04085529 26.9610894,7.96976837 C26.7591316,7.93595305 26.5553989,7.91288016 26.3510124,7.90064312 C26.2358348,7.89363719 26.1205637,7.89027434 26.0051993,7.8899941 C22.0050892,7.88681807 18.0050726,7.8899941 14.0049625,7.8899941 Z M19.8343695,11.4433122 C19.8809824,11.4434056 19.9275952,11.4438727 19.9742081,11.4448068 C20.0227826,11.4457409 20.0713571,11.4471421 20.1199316,11.4487301 C20.1914855,11.4511588 20.2630395,11.4542414 20.3345001,11.4578845 C20.5554206,11.4692809 20.7761544,11.4865622 20.9961408,11.5103824 C21.5901509,11.5744633 22.1794904,11.6856242 22.753697,11.8514314 C23.0733546,11.9438164 23.3882481,12.053109 23.6957621,12.18015 C24.0124304,12.3110209 24.321439,12.4606677 24.6196117,12.6293707 C25.0334291,12.8635558 25.4264154,13.1344521 25.7908176,13.439911 C25.9898796,13.6067457 26.1803477,13.7838558 26.3611009,13.9703071 C26.5224243,14.1366748 26.6759945,14.3105155 26.8211575,14.4910818 C26.9708977,14.6771595 27.1116704,14.8703366 27.2430083,15.0697723 C27.3877977,15.2894785 27.5211908,15.5167511 27.6427204,15.7501889 C27.8657895,16.1783918 28.0487846,16.627052 28.1920793,17.0880427 C28.3157575,17.4860734 28.4099173,17.8930717 28.4760533,18.3045537 C28.5361176,18.6779235 28.5731089,19.0549363 28.5887088,19.4327899 C28.5951543,19.5889756 28.5980501,19.7453481 28.5973028,19.9017206 C28.5967423,20.0265197 28.5941267,20.1514123 28.5887088,20.2761179 C28.5817029,20.4388425 28.5704,20.6013803 28.5546132,20.763451 C28.4960436,21.3642802 28.3767558,21.9592244 28.1980577,22.5358597 C28.028514,23.083257 27.8055384,23.6140268 27.5330541,24.1181741 C27.2314252,24.6760335 26.8692649,25.2011052 26.4543266,25.680685 C26.2251857,25.9455094 25.9801647,26.1964154 25.7206648,26.4315346 C25.4351962,26.6901938 25.1323529,26.9297969 24.8147504,27.1478217 C24.5020053,27.3624836 24.1750616,27.5562211 23.8365347,27.7272594 C23.4707313,27.9120293 23.0914766,28.0701767 22.7026938,28.2000201 C22.2562754,28.349013 21.7974332,28.4605475 21.3325192,28.5334093 C20.8918925,28.6024411 20.4459412,28.6367235 19.9999899,28.6367235 C19.716483,28.6367235 19.4328826,28.6228985 19.1506835,28.595155 C18.8550329,28.5660103 18.5608769,28.5216393 18.2698036,28.4621356 C17.9482778,28.3962797 17.6305818,28.3120217 17.3187709,28.209735 C17.0274173,28.1140806 16.7412014,28.0028263 16.4618046,27.8764392 C16.0197767,27.6766298 15.5948432,27.4390819 15.1928892,27.1675317 C14.7727198,26.8836511 14.3776784,26.5625924 14.0138367,26.2093997 C13.6749361,25.8804943 13.3630318,25.5236585 13.082514,25.1437499 C12.8053592,24.7686053 12.5587502,24.3707615 12.3461433,23.9556363 C12.1629614,23.5979599 12.0049074,23.2274859 11.8737563,22.8476707 C11.7494243,22.4873786 11.6491926,22.1187729 11.5739022,21.7451229 C11.5152391,21.4537693 11.4718023,21.1593331 11.4435917,20.8634957 C11.3864233,20.2626665 11.3922149,19.6557655 11.4605928,19.0560573 C11.5253277,18.4872686 11.6466705,17.9250187 11.8220992,17.3800502 C11.9298038,17.0454466 12.0578723,16.7173819 12.2053707,16.3981914 C12.3550175,16.0741435 12.524748,15.7592499 12.7130676,15.4560329 C12.9093273,15.1398316 13.1260443,14.836241 13.3612569,14.5477832 C13.6013271,14.253347 13.860827,13.9746041 14.1376082,13.7143569 C14.509857,13.3642468 14.913399,13.047485 15.3423492,12.7698631 C15.7757832,12.4892519 16.2351859,12.2487148 16.7130843,12.053109 C17.0006079,11.9355026 17.2947639,11.8341501 17.5937773,11.7497986 C17.8883069,11.6667549 18.1875072,11.6003386 18.4895098,11.5509234 C18.7783412,11.5035632 19.0696014,11.4718964 19.3617957,11.455736 C19.4634285,11.4501313 19.5651547,11.4464882 19.6668809,11.44462 C19.7133069,11.4437792 19.7598264,11.4434056 19.8062524,11.4433122 L19.8343695,11.4433122 Z M19.8111098,15.4466917 C19.7229284,15.4468785 19.634747,15.4495875 19.5467524,15.4551922 C19.4023367,15.4643467 19.2584815,15.4809741 19.1158406,15.5050745 C18.8121565,15.556358 18.5142641,15.6416436 18.2292625,15.7583158 C17.9811589,15.8598552 17.7428637,15.9849345 17.5178329,16.1305646 C17.2985004,16.2725516 17.0918719,16.4339684 16.9004697,16.6118258 C16.5594207,16.928681 16.2670396,17.2974736 16.0345359,17.7008287 C15.8573323,18.0082493 15.7150651,18.3357535 15.6114706,18.6752145 C15.5370209,18.919208 15.4826548,19.1692732 15.4490263,19.4222343 C15.4224037,19.6224173 15.4087655,19.8242817 15.4081116,20.0262395 C15.4070841,20.3377702 15.4370695,20.6493943 15.4985349,20.9548532 C15.5386089,21.1535416 15.591854,21.3494276 15.6579901,21.5410166 C15.723192,21.7299901 15.8010046,21.9146666 15.8904938,22.0934581 C16.0021217,22.3163404 16.1320585,22.5300682 16.2783425,22.732026 C16.4296707,22.9408029 16.5984671,23.1367823 16.7823963,23.3174421 C16.9696884,23.5013713 17.1725803,23.6694204 17.3882698,23.8189738 C17.6048,23.9689943 17.8341277,24.1005191 18.0731703,24.2112129 C18.3748926,24.350958 18.6918412,24.4574483 19.0166365,24.5281615 C19.3344258,24.5973802 19.6595947,24.6322231 19.9848571,24.6332506 C20.1997992,24.6339045 20.4148348,24.619986 20.6278153,24.5907479 C20.8698471,24.5574931 21.1090765,24.5046216 21.3424209,24.4324137 C21.6360164,24.3414299 21.9199904,24.2199003 22.1886448,24.0705337 C22.5239022,23.8839889 22.8348724,23.6544744 23.112868,23.3902105 C23.3603178,23.1550912 23.581612,22.8926021 23.7722669,22.6094688 C23.9186443,22.3920045 24.046993,22.16249 24.1557252,21.9240079 C24.2525005,21.7116812 24.3337694,21.4923487 24.3987845,21.2683455 C24.4862186,20.9671836 24.5443212,20.657708 24.572812,20.3455234 C24.5801916,20.2652821 24.5855161,20.1848539 24.5889724,20.1043324 C24.5914945,20.0470705 24.5928957,19.989902 24.5935496,19.9326402 C24.5942969,19.8684658 24.5941101,19.8042914 24.5929891,19.7402104 C24.5878514,19.4625885 24.5643115,19.1852468 24.5187262,18.9113613 C24.4643601,18.5846044 24.378514,18.2627049 24.2552095,17.9550976 C24.1882327,17.7882628 24.1104201,17.6257251 24.0211178,17.4696328 C23.9270514,17.3051334 23.8204677,17.1478267 23.701647,17.000235 C23.5932885,16.8655342 23.4750283,16.7388668 23.3479873,16.6215407 C23.2507449,16.5316779 23.1485516,16.4474198 23.0420614,16.3687665 C22.966117,16.312719 22.8879307,16.2594739 22.8080631,16.2091245 C22.7479054,16.1712925 22.6866268,16.1351418 22.6246009,16.1004858 C22.5765869,16.0737698 22.5281058,16.047988 22.4791576,16.0232336 C22.1226955,15.8426673 21.7420396,15.7127305 21.3533502,15.6223072 C21.2859064,15.6066139 21.2180889,15.592135 21.1500846,15.578777 C21.0618098,15.5614022 20.9730679,15.5458958 20.8841392,15.5321641 C20.7657856,15.5139487 20.6469649,15.4988159 20.5278639,15.4865788 C20.3883991,15.4722867 20.2485606,15.4618245 20.1085352,15.4550054 C20.0669667,15.4529503 20.0253047,15.4512689 19.9837361,15.4498677 C19.9405795,15.4483731 19.8975164,15.4472522 19.8543598,15.4468785 C19.8399743,15.4466917 19.8255888,15.4466917 19.8111098,15.4466917 Z M29.9709336,11.8880491 C29.9709336,12.9094214 29.1429252,13.7375232 28.1214595,13.7375232 C27.1000872,13.7375232 26.2719854,12.9094214 26.2719854,11.8880491 C26.2719854,10.8665834 27.1000872,10.038575 28.1214595,10.038575 C29.1429252,10.038575 29.9709336,10.8665834 29.9709336,11.8880491 Z" id="Combined-Shape" fill="#FFFFFF"></path>
                        </g>
                    </g>
                </g>
            </g>
        </g>
    </g>
</svg>