<?xml version="1.0" encoding="UTF-8"?>
<svg width="56px" height="56px" viewBox="0 0 56 56" version="1.1" xmlns="http://www.w3.org/2000/svg" xmlns:xlink="http://www.w3.org/1999/xlink">
    <!-- Generator: Sketch 43.1 (39012) - http://www.bohemiancoding.com/sketch -->
    <title>icon/ic_social_telegram</title>
    <desc>Created with Sketch.</desc>
    <defs></defs>
    <g id="UI" stroke="none" stroke-width="1" fill="none" fill-rule="evenodd">
        <g id="D.02.06-Project-info---Our-team" transform="translate(-227.000000, -536.000000)">
            <g id="icon_ic_social_linkedin" transform="translate(227.000000, 536.000000)">
                <path d="M0,13.9867095 L0,42.0132905 C0,49.7390937 6.26206313,56 13.9867095,56 L42.0132905,56 C49.7390937,56 56,49.7379369 56,42.0132905 L56,13.9867095 C56,6.26090629 49.7379369,0 42.0132905,0 L13.9867095,0 C6.26090629,0 0,6.26206313 0,13.9867095 Z" id="Rectangle" fill="#006699" transform="translate(28.000000, 28.000000) rotate(-0.000000) translate(-28.000000, -28.000000) "></path>
                <path d="M17.3459631,46.2897524 L17.3459631,21.2495781 L9.02307267,21.2495781 L9.02307267,46.2897524 L17.3459631,46.2897524 L17.3459631,46.2897524 Z M13.1844808,17.8307652 L13.1843326,17.8307652 L13.1302422,17.8307652 C10.3371743,17.8307652 8.53107185,15.9079608 8.53107185,13.505011 C8.53107185,11.0479708 10.3925244,9.17851584 13.2395345,9.17851584 C16.0868411,9.17851584 17.8392235,11.0479708 17.893314,13.505011 C17.893314,15.9079608 16.0868411,17.8307652 13.1844808,17.8307652 Z M21.9512834,46.2897524 L21.9515057,46.2897524 C21.9515057,46.2897524 22.0607239,23.5991784 21.9515057,21.2495781 L30.274322,21.2495781 L30.274322,24.881048 L30.2187496,24.881048 C31.313896,23.1716416 33.2850113,20.6619928 37.7749634,20.6619928 C43.2507695,20.6619928 47.3568276,24.2408542 47.3568276,31.9320719 L47.3568276,46.2897524 L39.0346781,46.2897524 L39.0346781,32.8938445 C39.0346781,29.5276401 37.829943,27.2313893 34.8182904,27.2313893 C32.5190757,27.2313893 31.149624,28.7800064 30.5479604,30.2752739 C30.3281901,30.8102507 30.2740997,31.5578845 30.2740997,32.3062592 L30.2740997,46.2897524 L21.9512834,46.2897524 Z" id="Combined-Shape" fill="#FFFFFF"></path>
            </g>
        </g>
    </g>
</svg>