<?xml version="1.0" encoding="UTF-8"?>
<svg width="40px" height="40px" viewBox="0 0 40 40" version="1.1" xmlns="http://www.w3.org/2000/svg" xmlns:xlink="http://www.w3.org/1999/xlink">
    <!-- Generator: Sketch 43.1 (39012) - http://www.bohemiancoding.com/sketch -->
    <title>icon_aparat@2x</title>
    <desc>Created with Sketch.</desc>
    <defs></defs>
    <g id="UI" stroke="none" stroke-width="1" fill="none" fill-rule="evenodd">
        <g id="D.00.00-Homepage" transform="translate(-155.000000, -4040.000000)">
            <g id="Footer" transform="translate(0.000000, 3895.000000)">
                <g id="Column-3" transform="translate(155.000000, 49.000000)">
                    <g id="Social-Icons" transform="translate(0.000000, 96.000000)">
                        <g id="icon_ic_social_aparat">
                            <path d="M0,9.99050677 L0,30.0094932 C0,35.5279241 4.47290224,40 9.99050677,40 L30.0094932,40 C35.5279241,40 40,35.5270978 40,30.0094932 L40,9.99050677 C40,4.47207592 35.5270978,0 30.0094932,0 L9.99050677,0 C4.47207592,0 0,4.47290224 0,9.99050677 Z" id="Rectangle" fill="#EC155B"></path>
                            <path d="M19.864431,5.98376154 C27.6044561,5.98376154 33.8849335,12.2912836 33.8849335,20.0646383 C33.8849335,27.837993 27.6044561,34.1455151 19.864431,34.1455151 C12.124406,34.1455151 5.84392857,27.837993 5.84392857,20.0646383 C5.84392857,12.2912836 12.124406,5.98376154 19.864431,5.98376154 L19.864431,5.98376154 Z M19.8202023,18.4433386 C20.8153484,18.4433386 21.6335796,19.2428837 21.6335796,20.242315 C21.6335796,21.2417463 20.8153484,22.0412914 19.8202023,22.0412914 C18.8471706,22.0412914 18.0289394,21.2417463 18.0289394,20.242315 C18.0289394,19.2428837 18.8471706,18.4433386 19.8202023,18.4433386 L19.8202023,18.4433386 Z M23.9777015,22.3966447 C26.1449085,22.3966447 27.9140571,24.1512019 27.9140571,26.3277412 C27.9140571,28.5042806 26.1449085,30.2588378 23.9777015,30.2588378 C21.8104945,30.2588378 20.0634603,28.5042806 20.0634603,26.3277412 C20.0634603,24.1512019 21.8104945,22.3966447 23.9777015,22.3966447 L23.9777015,22.3966447 Z M25.9237649,11.8693015 C28.0909719,11.8693015 29.8380061,13.6460683 29.8380061,15.8226076 C29.8380061,17.9991469 28.0909719,19.7537041 25.9237649,19.7537041 C23.7565579,19.7537041 22.0095237,17.9991469 22.0095237,15.8226076 C22.0095237,13.6460683 23.7565579,11.8693015 25.9237649,11.8693015 L25.9237649,11.8693015 Z M15.9944185,9.93706764 C18.1616255,9.93706764 19.9307741,11.6916248 19.9307741,13.8681642 C19.9307741,16.0447035 18.1616255,17.7992607 15.9944185,17.7992607 C13.8272115,17.7992607 12.0801773,16.0447035 12.0801773,13.8681642 C12.0801773,11.6916248 13.8272115,9.93706764 15.9944185,9.93706764 L15.9944185,9.93706764 Z M13.9156689,20.4644109 C16.082876,20.4644109 17.8299102,22.2411776 17.8299102,24.417717 C17.8299102,26.5942563 16.082876,28.3488135 13.9156689,28.3488135 C11.7484619,28.3488135 10.0014277,26.5942563 10.0014277,24.417717 C10.0014277,22.2411776 11.7484619,20.4644109 13.9156689,20.4644109 Z M35.0569944,17.7326319 C34.1060771,13.7349066 33.1330454,11.2696427 29.6610913,8.31576795 C32.0715562,8.62670214 34.0176196,9.04868425 35.278138,10.9809181 C36.5386564,12.9353616 35.9415687,15.3784159 35.0569944,17.7326319 Z M31.9830988,29.3704544 C31.6292691,31.8579279 30.9879527,34.3009822 28.9534318,35.3892519 C26.918911,36.4997311 24.9949619,35.9222819 22.7392975,35.0338985 C27.2063976,34.1233055 29.2409185,32.4131675 31.9830988,29.3704544 Z M4.78243942,22.7742077 C5.88815728,26.7053042 6.97176078,29.1483585 10.5542867,31.9467662 C8.14382172,31.7468799 6.17564392,31.4137362 4.82666813,29.5259215 C3.4998067,27.6381068 3.98632256,25.1506333 4.78243942,22.7742077 Z M8.01113557,10.4256785 C8.47553707,7.93820501 9.20531086,5.53956985 11.2840604,4.51792894 C13.36281,3.49628804 15.2646447,4.140366 17.4760805,5.11758773 C12.9868659,5.85050403 10.886002,7.49401331 8.01113557,10.4256785 Z" id="Combined-Shape" fill="#FFFFFF"></path>
                        </g>
                    </g>
                </g>
            </g>
        </g>
    </g>
</svg>