<?xml version="1.0" encoding="UTF-8"?>
<svg width="695px" height="441px" viewBox="0 0 695 441" version="1.1" xmlns="http://www.w3.org/2000/svg" xmlns:xlink="http://www.w3.org/1999/xlink">
    <!-- Generator: Sketch 43.1 (39012) - http://www.bohemiancoding.com/sketch -->
    <title>Shapes</title>
    <desc>Created with Sketch.</desc>
    <defs>
        <linearGradient x1="17.2870695%" y1="17.2836181%" x2="100%" y2="40.9551949%" id="linearGradient-1">
            <stop stop-color="#FF0000" stop-opacity="0" offset="0%"></stop>
            <stop stop-color="#FF8A00" stop-opacity="0.5" offset="100%"></stop>
        </linearGradient>
        <path d="M280.626032,48.789864 L371.05977,48.789864 L371.05977,140.270859 L280.626032,140.270859 L280.626032,48.789864 Z M131.108919,207.356922 L266.156634,207.356922 L266.156634,343.968542 L131.108919,343.968542 L131.108919,207.356922 Z M25,0 L188.986511,0 L188.986511,165.885538 L25,165.885538 L25,0 Z M25.0522506,361.038335 L99.8108073,361.038335 L99.8108073,436.662625 L25.0522506,436.662625 L25.0522506,361.038335 Z M349.355673,230.532108 L393.969651,230.532108 L393.969651,275.662732 L349.355673,275.662732 L349.355673,230.532108 Z M291.478081,384.220179 L346.944107,384.220179 L346.944107,440.328523 L291.478081,440.328523 L291.478081,384.220179 Z M393.969651,343.968542 L416.879531,343.968542 L416.879531,367.143727 L393.969651,367.143727 L393.969651,343.968542 Z M432.269343,145.141522 L469.648622,145.141522 L469.648622,182.953667 L432.269343,182.953667 L432.269343,145.141522 Z M551.927246,130.512886 L571.219777,130.512886 L571.219777,150.028832 L551.927246,150.028832 L551.927246,130.512886 Z M513.342185,378.121446 L525.400016,378.121446 L525.400016,390.318912 L513.342185,390.318912 L513.342185,378.121446 Z M746.058337,154.907818 L756.910385,154.907818 L756.910385,165.885538 L746.058337,165.885538 L746.058337,154.907818 Z M644.77255,191.500216 L660.447732,191.500216 L660.447732,207.356922 L644.77255,207.356922 L644.77255,191.500216 Z M484.403389,207.356922 L500.07857,207.356922 L500.07857,223.213628 L484.403389,223.213628 L484.403389,207.356922 Z" id="path-2"></path>
    </defs>
    <g id="UI" stroke="none" stroke-width="1" fill="none" fill-rule="evenodd">
        <g id="M.02.03.05-Project-info---Comment-&amp;-Score-5" transform="translate(-25.000000, 0.000000)">
            <g id="Shapes" transform="translate(390.955193, 220.164262) scale(-1, 1) translate(-390.955193, -220.164262) ">
                <use fill="#FFCB05" xlink:href="#path-2"></use>
                <use fill="url(#linearGradient-1)" xlink:href="#path-2"></use>
            </g>
        </g>
    </g>
</svg>