<?xml version="1.0" encoding="UTF-8"?>
<svg width="1600px" height="898px" viewBox="0 0 1600 898" version="1.1" xmlns="http://www.w3.org/2000/svg" xmlns:xlink="http://www.w3.org/1999/xlink">
    <!-- Generator: Sketch 43.1 (39012) - http://www.bohemiancoding.com/sketch -->
    <title>Shapes@2x</title>
    <desc>Created with Sketch.</desc>
    <defs>
        <linearGradient x1="96.0744725%" y1="50%" x2="16.7951435%" y2="50%" id="linearGradient-1">
            <stop stop-color="#FFCB05" offset="0%"></stop>
            <stop stop-color="#FFCB05" stop-opacity="0.666638361" offset="33.0277423%"></stop>
            <stop stop-color="#FFCB05" stop-opacity="0" offset="50.3168846%"></stop>
            <stop stop-color="#FFCB05" stop-opacity="0.463286911" offset="68.9273756%"></stop>
            <stop stop-color="#FFCB05" offset="100%"></stop>
        </linearGradient>
        <linearGradient x1="1.45974943%" y1="50%" x2="93.6151609%" y2="50%" id="linearGradient-2">
            <stop stop-color="#FF0000" stop-opacity="0" offset="0%"></stop>
            <stop stop-color="#FF8A00" stop-opacity="0.359997736" offset="100%"></stop>
        </linearGradient>
        <path d="M1571,312.5 L1711,312.5 L1711,452.5 L1571,452.5 L1571,312.5 Z M1540,602.5 L1711,602.5 L1711,773.5 L1540,773.5 L1540,602.5 Z M1513,496.5 L1572,496.5 L1572,555.5 L1513,555.5 L1513,496.5 Z M1463,798.5 L1550,798.5 L1550,885.5 L1463,885.5 L1463,798.5 Z M1452,584.5 L1494,584.5 L1494,626.5 L1452,626.5 L1452,584.5 Z M1334,658.5 L1393,658.5 L1393,717.5 L1334,717.5 L1334,658.5 Z M1372,481.5 L1454,481.5 L1454,563.5 L1372,563.5 L1372,481.5 Z M1133,673.5 L1158,673.5 L1158,698.5 L1133,698.5 L1133,673.5 Z M1187,633.5 L1224,633.5 L1224,670.5 L1187,670.5 L1187,633.5 Z M1224,691.5 L1249,691.5 L1249,716.5 L1224,716.5 L1224,691.5 Z M1291,617.5 L1316,617.5 L1316,642.5 L1291,642.5 L1291,617.5 Z M1302,722.5 L1316,722.5 L1316,736.5 L1302,736.5 L1302,722.5 Z M1426,730.5 L1447,730.5 L1447,751.5 L1426,751.5 L1426,730.5 Z M1413,802.5 L1425,802.5 L1425,814.5 L1413,814.5 L1413,802.5 Z M840,714.5 L863,714.5 L863,737.5 L840,737.5 L840,714.5 Z M889,665.5 L934,665.5 L934,710.5 L889,710.5 L889,665.5 Z M965,619.5 L1018,619.5 L1018,672.5 L965,672.5 L965,619.5 Z M1008,716.5 L1028,716.5 L1028,736.5 L1008,736.5 L1008,716.5 Z M1061,676.5 L1074,676.5 L1074,689.5 L1061,689.5 L1061,676.5 Z M1099,656.5 L1108,656.5 L1108,665.5 L1099,665.5 L1099,656.5 Z M1092,726.5 L1106,726.5 L1106,740.5 L1092,740.5 L1092,726.5 Z M1575,885.5 L1604,885.5 L1604,914.5 L1575,914.5 L1575,885.5 Z M1517,939.5 L1533,939.5 L1533,955.5 L1517,955.5 L1517,939.5 Z M1574,1026.5 L1584,1026.5 L1584,1036.5 L1574,1036.5 L1574,1026.5 Z M1413,253.5 L1532,253.5 L1532,372.5 L1413,372.5 L1413,253.5 Z M1572,237.5 L1604,237.5 L1604,269.5 L1572,269.5 L1572,237.5 Z M1512,166.5 L1532,166.5 L1532,186.5 L1512,186.5 L1512,166.5 Z M1604,139.5 L1612,139.5 L1612,147.5 L1604,147.5 L1604,139.5 Z M0,522.5 L69,522.5 L69,591.5 L0,591.5 L0,522.5 Z M174,440.5 L270,440.5 L270,536.5 L174,536.5 L174,440.5 Z M119,556.5 L253,556.5 L253,690.5 L119,690.5 L119,556.5 Z M284,511.5 L361,511.5 L361,588.5 L284,588.5 L284,511.5 Z M342,617.5 L445,617.5 L445,720.5 L342,720.5 L342,617.5 Z M394,553.5 L429,553.5 L429,588.5 L394,588.5 L394,553.5 Z M468,573.5 L518,573.5 L518,623.5 L468,623.5 L468,573.5 Z M539,619.5 L605,619.5 L605,685.5 L539,685.5 L539,619.5 Z M459,703.5 L493,703.5 L493,737.5 L459,737.5 L459,703.5 Z M635,606.5 L672,606.5 L672,643.5 L635,643.5 L635,606.5 Z M706,598.5 L722,598.5 L722,614.5 L706,614.5 L706,598.5 Z M701,668.5 L710,668.5 L710,677.5 L701,677.5 L701,668.5 Z M781,684.5 L793,684.5 L793,696.5 L781,696.5 L781,684.5 Z M801,623.5 L840,623.5 L840,662.5 L801,662.5 L801,623.5 Z M742,642.5 L762,642.5 L762,662.5 L742,662.5 L742,642.5 Z M51,673.5 L88,673.5 L88,710.5 L51,710.5 L51,673.5 Z M174,720.5 L232,720.5 L232,778.5 L174,778.5 L174,720.5 Z M126,787.5 L147,787.5 L147,808.5 L126,808.5 L126,787.5 Z" id="path-3"></path>
    </defs>
    <g id="UI" stroke="none" stroke-width="1" fill="none" fill-rule="evenodd">
        <g id="D.00.00-Homepage" transform="translate(0.000000, -1091.000000)">
            <g id="Section-2" transform="translate(-40.000000, 952.000000)">
                <g id="Shapes">
                    <use fill="url(#linearGradient-1)" xlink:href="#path-3"></use>
                    <use fill="url(#linearGradient-2)" xlink:href="#path-3"></use>
                </g>
            </g>
        </g>
    </g>
</svg>